ply
format ascii 1.0
comment Created by Open Asset Import Library - http://assimp.sf.net (v5.0.1588609223)
element vertex 180
property float x
property float y
property float z
property float nx
property float ny
property float nz
property float s
property float t
element face 60
property list uchar int vertex_index
end_header
7.8895621 1.150329 -2.173651 0.005105 -0.85986102 -0.51050299 0.375 0.3125
0.033757001 0 -0.314657 0.005105 -0.85986102 -0.51050299 0.5 0.68844002
2.2128079 1.150329 -2.2304139 0.005105 -0.85986102 -0.51050299 0.40000001 0.3125
2.2128079 1.150329 -2.2304139 0.365127 -0.920739 -0.137556 0.40000001 0.3125
0.033757001 0 -0.314657 0.365127 -0.920739 -0.137556 0.5 0.68844002
0.068023004 1.150328 -7.923502 0.365127 -0.920739 -0.137556 0.42500001 0.3125
0.068023004 1.150328 -7.923502 -0.360232 -0.92214 -0.14103401 0.42500001 0.3125
0.033757001 0 -0.314657 -0.360232 -0.92214 -0.14103401 0.5 0.68844002
-2.1513059 1.150329 -2.2548571 -0.360232 -0.92214 -0.14103401 0.44999999 0.3125
-2.1513059 1.150329 -2.2548571 0.000604 -0.85987997 -0.51049602 0.44999999 0.3125
0.033757001 0 -0.314657 0.000604 -0.85987997 -0.51049602 0.5 0.68844002
-7.8174062 1.150328 -2.2615581 0.000604 -0.85987997 -0.51049602 0.47499999 0.3125
-7.8174062 1.150328 -2.2615581 -0.189615 -0.96205097 0.19622201 0.47499999 0.3125
0.033757001 0 -0.314657 -0.189615 -0.96205097 0.19622201 0.5 0.68844002
-3.523133 1.150328 1.8881221 -0.189615 -0.96205097 0.19622201 0.5 0.3125
-3.523133 1.150328 1.8881221 -0.35898 -0.92852199 -0.094765998 0.5 0.3125
0.033757001 0 -0.314657 -0.35898 -0.92852199 -0.094765998 0.5 0.68844002
-4.8693151 1.150328 6.9875522 -0.35898 -0.92852199 -0.094765998 0.52499998 0.3125
-4.8693151 1.150328 6.9875522 0.12043 -0.96501899 0.232884 0.52499998 0.3125
0.033757001 0 -0.314657 0.12043 -0.96501899 0.232884 0.5 0.68844002
-0.006854 1.150329 4.4730468 0.12043 -0.96501899 0.232884 0.55000001 0.3125
-0.006854 1.150329 4.4730468 -0.122414 -0.96525103 0.23088001 0.55000001 0.3125
0.033757001 0 -0.314657 -0.122414 -0.96525103 0.23088001 0.5 0.68844002
4.8381271 1.150328 7.0418849 -0.122414 -0.96525103 0.23088001 0.57499999 0.3125
4.8381271 1.150328 7.0418849 0.36340901 -0.92703903 -0.092373997 0.57499999 0.3125
0.033757001 0 -0.314657 0.36340901 -0.92703903 -0.092373997 0.5 0.68844002
3.5381529 1.150329 1.927652 0.36340901 -0.92703903 -0.092373997 0.60000002 0.3125
3.5381529 1.150329 1.927652 0.18802901 -0.961689 0.199495 0.60000002 0.3125
0.033757001 0 -0.314657 0.18802901 -0.961689 0.199495 0.5 0.68844002
7.8895621 1.150329 -2.173651 0.18802901 -0.961689 0.199495 0.625 0.3125
7.8895621 1.150329 -2.173651 0.183421 0.963579 0.19460601 0.62640899 0.064409003
0.035668001 2.269531 -0.31283101 0.183421 0.963579 0.19460601 0.5 0.15625
3.5381529 1.150329 1.927652 0.183421 0.963579 0.19460601 0.65625 0.15625
3.5381529 1.150329 1.927652 0.35506201 0.93047601 -0.090251997 0.65625 0.15625
0.035668001 2.269531 -0.31283101 0.35506201 0.93047601 -0.090251997 0.5 0.15625
4.8381271 1.150328 7.0418849 0.35506201 0.93047601 -0.090251997 0.62640899 0.248091
4.8381271 1.150328 7.0418849 -0.119338 0.96700501 0.225079 0.62640899 0.248091
0.035668001 2.269531 -0.31283101 -0.119338 0.96700501 0.225079 0.5 0.15625
-0.006854 1.150329 4.4730468 -0.119338 0.96700501 0.225079 0.54828399 0.30485299
-0.006854 1.150329 4.4730468 0.117452 0.966757 0.227125 0.54828399 0.30485299
0.035668001 2.269531 -0.31283101 0.117452 0.966757 0.227125 0.5 0.15625
-4.8693151 1.150328 6.9875522 0.117452 0.966757 0.227125 0.45171601 0.30485299
-4.8693151 1.150328 6.9875522 -0.350315 0.932055 -0.092478 0.45171601 0.30485299
0.035668001 2.269531 -0.31283101 -0.350315 0.932055 -0.092478 0.5 0.15625
-3.523133 1.150328 1.8881221 -0.350315 0.932055 -0.092478 0.37359101 0.248091
-3.523133 1.150328 1.8881221 -0.184852 0.96396899 0.191293 0.37359101 0.248091
0.035668001 2.269531 -0.31283101 -0.184852 0.96396899 0.191293 0.5 0.15625
-7.8174062 1.150328 -2.2615581 -0.184852 0.96396899 0.191293 0.34375 0.15625
-7.8174062 1.150328 -2.2615581 0.00059100002 0.86612803 -0.49982101 0.34375 0.15625
0.035668001 2.269531 -0.31283101 0.00059100002 0.86612803 -0.49982101 0.5 0.15625
-2.1513059 1.150329 -2.2548571 0.00059100002 0.86612803 -0.49982101 0.37359101 0.064409003
-2.1513059 1.150329 -2.2548571 -0.35162401 0.925964 -0.13766401 0.37359101 0.064409003
0.035668001 2.269531 -0.31283101 -0.35162401 0.925964 -0.13766401 0.5 0.15625
0.068023004 1.150328 -7.923502 -0.35162401 0.925964 -0.13766401 0.45171601 0.0076469998
0.068023004 1.150328 -7.923502 0.356828 0.924447 -0.13443001 0.45171601 0.0076469998
0.035668001 2.269531 -0.31283101 0.356828 0.924447 -0.13443001 0.5 0.15625
2.2128079 1.150329 -2.2304139 0.356828 0.924447 -0.13443001 0.54828399 0.0076469998
2.2128079 1.150329 -2.2304139 0.0049979999 0.866108 -0.499832 0.54828399 0.0076469998
0.035668001 2.269531 -0.31283101 0.0049979999 0.866108 -0.499832 0.5 0.15625
7.8895621 1.150329 -2.173651 0.0049979999 0.866108 -0.499832 0.62640899 0.064409003
7.8895621 1.150329 -2.173651 0.005105 -0.85986102 -0.51050299 0.375 0.3125
0.033757001 0 -0.314657 0.005105 -0.85986102 -0.51050299 0.5 0.68844002
2.2128079 1.150329 -2.2304139 0.005105 -0.85986102 -0.51050299 0.40000001 0.3125
2.2128079 1.150329 -2.2304139 0.365127 -0.920739 -0.137556 0.40000001 0.3125
0.033757001 0 -0.314657 0.365127 -0.920739 -0.137556 0.5 0.68844002
0.068023004 1.150328 -7.923502 0.365127 -0.920739 -0.137556 0.42500001 0.3125
0.068023004 1.150328 -7.923502 -0.360232 -0.92214 -0.14103401 0.42500001 0.3125
0.033757001 0 -0.314657 -0.360232 -0.92214 -0.14103401 0.5 0.68844002
-2.1513059 1.150329 -2.2548571 -0.360232 -0.92214 -0.14103401 0.44999999 0.3125
-2.1513059 1.150329 -2.2548571 0.000604 -0.85987997 -0.51049602 0.44999999 0.3125
0.033757001 0 -0.314657 0.000604 -0.85987997 -0.51049602 0.5 0.68844002
-7.8174062 1.150328 -2.2615581 0.000604 -0.85987997 -0.51049602 0.47499999 0.3125
-7.8174062 1.150328 -2.2615581 -0.189615 -0.96205097 0.19622201 0.47499999 0.3125
0.033757001 0 -0.314657 -0.189615 -0.96205097 0.19622201 0.5 0.68844002
-3.523133 1.150328 1.8881221 -0.189615 -0.96205097 0.19622201 0.5 0.3125
-3.523133 1.150328 1.8881221 -0.35898 -0.92852199 -0.094765998 0.5 0.3125
0.033757001 0 -0.314657 -0.35898 -0.92852199 -0.094765998 0.5 0.68844002
-4.8693151 1.150328 6.9875522 -0.35898 -0.92852199 -0.094765998 0.52499998 0.3125
-4.8693151 1.150328 6.9875522 0.12043 -0.96501899 0.232884 0.52499998 0.3125
0.033757001 0 -0.314657 0.12043 -0.96501899 0.232884 0.5 0.68844002
-0.006854 1.150329 4.4730468 0.12043 -0.96501899 0.232884 0.55000001 0.3125
-0.006854 1.150329 4.4730468 -0.122414 -0.96525103 0.23088001 0.55000001 0.3125
0.033757001 0 -0.314657 -0.122414 -0.96525103 0.23088001 0.5 0.68844002
4.8381271 1.150328 7.0418849 -0.122414 -0.96525103 0.23088001 0.57499999 0.3125
4.8381271 1.150328 7.0418849 0.36340901 -0.92703903 -0.092373997 0.57499999 0.3125
0.033757001 0 -0.314657 0.36340901 -0.92703903 -0.092373997 0.5 0.68844002
3.5381529 1.150329 1.927652 0.36340901 -0.92703903 -0.092373997 0.60000002 0.3125
3.5381529 1.150329 1.927652 0.18802901 -0.961689 0.199495 0.60000002 0.3125
0.033757001 0 -0.314657 0.18802901 -0.961689 0.199495 0.5 0.68844002
7.8895621 1.150329 -2.173651 0.18802901 -0.961689 0.199495 0.625 0.3125
7.8895621 1.150329 -2.173651 0.183421 0.963579 0.19460601 0.62640899 0.064409003
0.035668001 2.269531 -0.31283101 0.183421 0.963579 0.19460601 0.5 0.15625
3.5381529 1.150329 1.927652 0.183421 0.963579 0.19460601 0.65625 0.15625
3.5381529 1.150329 1.927652 0.35506201 0.93047601 -0.090251997 0.65625 0.15625
0.035668001 2.269531 -0.31283101 0.35506201 0.93047601 -0.090251997 0.5 0.15625
4.8381271 1.150328 7.0418849 0.35506201 0.93047601 -0.090251997 0.62640899 0.248091
4.8381271 1.150328 7.0418849 -0.119338 0.96700501 0.225079 0.62640899 0.248091
0.035668001 2.269531 -0.31283101 -0.119338 0.96700501 0.225079 0.5 0.15625
-0.006854 1.150329 4.4730468 -0.119338 0.96700501 0.225079 0.54828399 0.30485299
-0.006854 1.150329 4.4730468 0.117452 0.966757 0.227125 0.54828399 0.30485299
0.035668001 2.269531 -0.31283101 0.117452 0.966757 0.227125 0.5 0.15625
-4.8693151 1.150328 6.9875522 0.117452 0.966757 0.227125 0.45171601 0.30485299
-4.8693151 1.150328 6.9875522 -0.350315 0.932055 -0.092478 0.45171601 0.30485299
0.035668001 2.269531 -0.31283101 -0.350315 0.932055 -0.092478 0.5 0.15625
-3.523133 1.150328 1.8881221 -0.350315 0.932055 -0.092478 0.37359101 0.248091
-3.523133 1.150328 1.8881221 -0.184852 0.96396899 0.191293 0.37359101 0.248091
0.035668001 2.269531 -0.31283101 -0.184852 0.96396899 0.191293 0.5 0.15625
-7.8174062 1.150328 -2.2615581 -0.184852 0.96396899 0.191293 0.34375 0.15625
-7.8174062 1.150328 -2.2615581 0.00059100002 0.86612803 -0.49982101 0.34375 0.15625
0.035668001 2.269531 -0.31283101 0.00059100002 0.86612803 -0.49982101 0.5 0.15625
-2.1513059 1.150329 -2.2548571 0.00059100002 0.86612803 -0.49982101 0.37359101 0.064409003
-2.1513059 1.150329 -2.2548571 -0.35162401 0.925964 -0.13766401 0.37359101 0.064409003
0.035668001 2.269531 -0.31283101 -0.35162401 0.925964 -0.13766401 0.5 0.15625
0.068023004 1.150328 -7.923502 -0.35162401 0.925964 -0.13766401 0.45171601 0.0076469998
0.068023004 1.150328 -7.923502 0.356828 0.924447 -0.13443001 0.45171601 0.0076469998
0.035668001 2.269531 -0.31283101 0.356828 0.924447 -0.13443001 0.5 0.15625
2.2128079 1.150329 -2.2304139 0.356828 0.924447 -0.13443001 0.54828399 0.0076469998
2.2128079 1.150329 -2.2304139 0.0049979999 0.866108 -0.499832 0.54828399 0.0076469998
0.035668001 2.269531 -0.31283101 0.0049979999 0.866108 -0.499832 0.5 0.15625
7.8895621 1.150329 -2.173651 0.0049979999 0.866108 -0.499832 0.62640899 0.064409003
7.8895621 1.150329 -2.173651 0.005105 -0.85986102 -0.51050299 0.375 0.3125
0.033757001 0 -0.314657 0.005105 -0.85986102 -0.51050299 0.5 0.68844002
2.2128079 1.150329 -2.2304139 0.005105 -0.85986102 -0.51050299 0.40000001 0.3125
2.2128079 1.150329 -2.2304139 0.365127 -0.920739 -0.137556 0.40000001 0.3125
0.033757001 0 -0.314657 0.365127 -0.920739 -0.137556 0.5 0.68844002
0.068023004 1.150328 -7.923502 0.365127 -0.920739 -0.137556 0.42500001 0.3125
0.068023004 1.150328 -7.923502 -0.360232 -0.92214 -0.14103401 0.42500001 0.3125
0.033757001 0 -0.314657 -0.360232 -0.92214 -0.14103401 0.5 0.68844002
-2.1513059 1.150329 -2.2548571 -0.360232 -0.92214 -0.14103401 0.44999999 0.3125
-2.1513059 1.150329 -2.2548571 0.000604 -0.85987997 -0.51049602 0.44999999 0.3125
0.033757001 0 -0.314657 0.000604 -0.85987997 -0.51049602 0.5 0.68844002
-7.8174062 1.150328 -2.2615581 0.000604 -0.85987997 -0.51049602 0.47499999 0.3125
-7.8174062 1.150328 -2.2615581 -0.189615 -0.96205097 0.19622201 0.47499999 0.3125
0.033757001 0 -0.314657 -0.189615 -0.96205097 0.19622201 0.5 0.68844002
-3.523133 1.150328 1.8881221 -0.189615 -0.96205097 0.19622201 0.5 0.3125
-3.523133 1.150328 1.8881221 -0.35898 -0.92852199 -0.094765998 0.5 0.3125
0.033757001 0 -0.314657 -0.35898 -0.92852199 -0.094765998 0.5 0.68844002
-4.8693151 1.150328 6.9875522 -0.35898 -0.92852199 -0.094765998 0.52499998 0.3125
-4.8693151 1.150328 6.9875522 0.12043 -0.96501899 0.232884 0.52499998 0.3125
0.033757001 0 -0.314657 0.12043 -0.96501899 0.232884 0.5 0.68844002
-0.006854 1.150329 4.4730468 0.12043 -0.96501899 0.232884 0.55000001 0.3125
-0.006854 1.150329 4.4730468 -0.122414 -0.96525103 0.23088001 0.55000001 0.3125
0.033757001 0 -0.314657 -0.122414 -0.96525103 0.23088001 0.5 0.68844002
4.8381271 1.150328 7.0418849 -0.122414 -0.96525103 0.23088001 0.57499999 0.3125
4.8381271 1.150328 7.0418849 0.36340901 -0.92703903 -0.092373997 0.57499999 0.3125
0.033757001 0 -0.314657 0.36340901 -0.92703903 -0.092373997 0.5 0.68844002
3.5381529 1.150329 1.927652 0.36340901 -0.92703903 -0.092373997 0.60000002 0.3125
3.5381529 1.150329 1.927652 0.18802901 -0.961689 0.199495 0.60000002 0.3125
0.033757001 0 -0.314657 0.18802901 -0.961689 0.199495 0.5 0.68844002
7.8895621 1.150329 -2.173651 0.18802901 -0.961689 0.199495 0.625 0.3125
7.8895621 1.150329 -2.173651 0.183421 0.963579 0.19460601 0.62640899 0.064409003
0.035668001 2.269531 -0.31283101 0.183421 0.963579 0.19460601 0.5 0.15625
3.5381529 1.150329 1.927652 0.183421 0.963579 0.19460601 0.65625 0.15625
3.5381529 1.150329 1.927652 0.35506201 0.93047601 -0.090251997 0.65625 0.15625
0.035668001 2.269531 -0.31283101 0.35506201 0.93047601 -0.090251997 0.5 0.15625
4.8381271 1.150328 7.0418849 0.35506201 0.93047601 -0.090251997 0.62640899 0.248091
4.8381271 1.150328 7.0418849 -0.119338 0.96700501 0.225079 0.62640899 0.248091
0.035668001 2.269531 -0.31283101 -0.119338 0.96700501 0.225079 0.5 0.15625
-0.006854 1.150329 4.4730468 -0.119338 0.96700501 0.225079 0.54828399 0.30485299
-0.006854 1.150329 4.4730468 0.117452 0.966757 0.227125 0.54828399 0.30485299
0.035668001 2.269531 -0.31283101 0.117452 0.966757 0.227125 0.5 0.15625
-4.8693151 1.150328 6.9875522 0.117452 0.966757 0.227125 0.45171601 0.30485299
-4.8693151 1.150328 6.9875522 -0.350315 0.932055 -0.092478 0.45171601 0.30485299
0.035668001 2.269531 -0.31283101 -0.350315 0.932055 -0.092478 0.5 0.15625
-3.523133 1.150328 1.8881221 -0.350315 0.932055 -0.092478 0.37359101 0.248091
-3.523133 1.150328 1.8881221 -0.184852 0.96396899 0.191293 0.37359101 0.248091
0.035668001 2.269531 -0.31283101 -0.184852 0.96396899 0.191293 0.5 0.15625
-7.8174062 1.150328 -2.2615581 -0.184852 0.96396899 0.191293 0.34375 0.15625
-7.8174062 1.150328 -2.2615581 0.00059100002 0.86612803 -0.49982101 0.34375 0.15625
0.035668001 2.269531 -0.31283101 0.00059100002 0.86612803 -0.49982101 0.5 0.15625
-2.1513059 1.150329 -2.2548571 0.00059100002 0.86612803 -0.49982101 0.37359101 0.064409003
-2.1513059 1.150329 -2.2548571 -0.35162401 0.925964 -0.13766401 0.37359101 0.064409003
0.035668001 2.269531 -0.31283101 -0.35162401 0.925964 -0.13766401 0.5 0.15625
0.068023004 1.150328 -7.923502 -0.35162401 0.925964 -0.13766401 0.45171601 0.0076469998
0.068023004 1.150328 -7.923502 0.356828 0.924447 -0.13443001 0.45171601 0.0076469998
0.035668001 2.269531 -0.31283101 0.356828 0.924447 -0.13443001 0.5 0.15625
2.2128079 1.150329 -2.2304139 0.356828 0.924447 -0.13443001 0.54828399 0.0076469998
2.2128079 1.150329 -2.2304139 0.0049979999 0.866108 -0.499832 0.54828399 0.0076469998
0.035668001 2.269531 -0.31283101 0.0049979999 0.866108 -0.499832 0.5 0.15625
7.8895621 1.150329 -2.173651 0.0049979999 0.866108 -0.499832 0.62640899 0.064409003
3 0 1 2
3 3 4 5
3 6 7 8
3 9 10 11
3 12 13 14
3 15 16 17
3 18 19 20
3 21 22 23
3 24 25 26
3 27 28 29
3 30 31 32
3 33 34 35
3 36 37 38
3 39 40 41
3 42 43 44
3 45 46 47
3 48 49 50
3 51 52 53
3 54 55 56
3 57 58 59
3 60 61 62
3 63 64 65
3 66 67 68
3 69 70 71
3 72 73 74
3 75 76 77
3 78 79 80
3 81 82 83
3 84 85 86
3 87 88 89
3 90 91 92
3 93 94 95
3 96 97 98
3 99 100 101
3 102 103 104
3 105 106 107
3 108 109 110
3 111 112 113
3 114 115 116
3 117 118 119
3 120 121 122
3 123 124 125
3 126 127 128
3 129 130 131
3 132 133 134
3 135 136 137
3 138 139 140
3 141 142 143
3 144 145 146
3 147 148 149
3 150 151 152
3 153 154 155
3 156 157 158
3 159 160 161
3 162 163 164
3 165 166 167
3 168 169 170
3 171 172 173
3 174 175 176
3 177 178 179
