ply
format ascii 1.0
comment Exported by Aspose.3D 21.11
element vertex 144
property float x
property float y
property float z
property float nx
property float ny
property float nz
element face 130
property list uchar int vertex_index
end_header
0.00544 -0.939428 -0.809443 -0.0420311293133404 0.444972487360558 -0.770182421348108
-0.019167 0.022684 3.227034 0.0190339159308801 -0.586072605198675 0.546335492976556
-0.637348 -0.705472 -0.809443 0.312269596907789 0.347840154090238 -0.744084244308237
-0.028745 0.02617 3.227034 -0.398946890647244 -0.42410806030196 0.541438621062208
-0.979368 -0.113076 -1.00352 0.373304513132946 0.0759667679591234 -0.849786998600699
-0.033842 0.034997 3.227034 -0.608895732518958 -0.11167138626918 0.533109493086384
-0.860586 0.560572 -1.00352 0.311648931671509 -0.167378013285933 -0.869169857526886
-0.032072 0.045035 3.227034 -0.521513549183839 0.258564060689302 0.536103652246675
-0.33658 1.000265 -0.809443 0.139278951022633 -0.434334864650868 -0.752989748769872
-0.024263 0.051587 3.227034 -0.164829984092792 0.558633757443384 0.535899739598074
0.353069 0.994068 -0.872769 -0.185760859314123 -0.447384321504899 -0.755096834094843
-0.01407 0.051587 3.227034 0.21590305604066 0.57987436743647 0.532669337291598
0.871465 0.560572 -1.00352 -0.26686051163258 -0.183860287811391 -0.894433168713429
-0.006262 0.045035 3.227034 0.487997835725748 0.318736345113219 0.540833165305325
0.990247 -0.113076 -1.00352 -0.182966079929703 0.0541667156519489 -0.969008187110397
-0.004492 0.034997 3.227034 0.574167225632494 -0.120271033199687 0.545867159902731
0.653837 -0.711668 -1.066847 -0.206533303766646 0.257765974455137 -0.899077103578174
-0.009589 0.02617 3.227034 0.39024013913632 -0.464640282029774 0.544503374640408
0.00229 -0.816288 -0.453387 -0.0135486495009448 -0.274081779336836 -0.256672572328476
-0.559453 -0.61183 -0.453387 -0.139025009918513 -0.193401414550178 -0.246850992203163
-0.858351 -0.094124 -0.453387 -0.192272676916591 -0.0351751430772012 -0.235024994881614
-0.754545 0.494589 -0.453387 -0.191299999328002 0.129726673167977 -0.247030688563381
-0.296607 0.878845 -0.453387 -0.100727078590224 0.244123065992341 -0.257535813128795
0.306797 0.872648 -0.516713 0.0867971763714657 0.235392601760555 -0.254881422599936
0.759126 0.494589 -0.453387 0.236398755980395 0.121721812818698 -0.254656289218307
0.862932 -0.094124 -0.453387 0.268766212046914 -0.0345853660447364 -0.254858224782403
0.569643 -0.618026 -0.516713 0.166291936280058 -0.198365703910113 -0.254628290982324
-0.015024 -0.139296 2.516458 -0.0586998872179062 -0.268687624451755 -0.273250440431902
-0.131209 -0.097008 2.516458 -0.100992438402955 -0.18713966634759 -0.255448042028778
-0.193029 0.010068 2.516458 -0.129745322886902 -0.0251219772930807 -0.223702219490748
-0.171559 0.13183 2.516458 -0.149097540149435 0.129722273184511 -0.250247792073325
-0.076845 0.211305 2.516458 -0.130701940331818 0.210309654840925 -0.263357953974203
0.052405 0.205109 2.453131 0.068496899078768 0.171715032321122 -0.246510280545732
0.141511 0.13183 2.516458 0.242667423381218 0.0727007389407253 -0.260356119706159
0.162981 0.010068 2.516458 0.269533088342459 0.00847844087461325 -0.269910193551655
0.106769 -0.103204 2.453131 0.136264399267161 -0.158665240334309 -0.261456099438288
-0.242392 -0.230669 1.745409 -0.122008105083398 -0.191932666662543 -0.267217391941696
-0.365764 -0.016983 1.745409 -0.161483107281069 -0.0304520842638369 -0.243120658057594
-0.322917 0.226012 1.745409 -0.17122436877869 0.130022759071563 -0.263112759482611
-0.133901 0.384616 1.745409 -0.115121684703523 0.230052993408578 -0.278805952777731
0.118452 0.37842 1.682083 0.0782281648126627 0.207311018041397 -0.271938932092651
0.30186 0.226012 1.745409 0.240529754531206 0.100355568098589 -0.276839054282511
0.344706 -0.016983 1.745409 0.271334142606902 -0.0155806719645619 -0.281185645637416
0.226943 -0.236866 1.682082 0.153908238566415 -0.182681132465867 -0.279432804598695
-0.010529 -0.315061 1.745409 -0.0342002212033841 -0.275454953806038 -0.284592759774946
-0.365054 -0.378129 0.894761 -0.144347422390488 -0.209376796405692 -0.284180605518702
-0.556331 -0.046827 0.894761 -0.197545045746529 -0.0364985638420753 -0.267613809537559
-0.489901 0.329917 0.894761 -0.200381258353727 0.141284052293027 -0.282820490632405
-0.196847 0.575818 0.894761 -0.115331344707943 0.259340588909466 -0.295583551820284
0.191317 0.569622 0.831434 0.0906937419480435 0.243972446689488 -0.291444346648393
0.478762 0.329916 0.894761 0.258200543095899 0.123292198527883 -0.292982086932223
0.545192 -0.046827 0.894761 0.292301827014645 -0.0292700917307833 -0.294556030601196
0.359524 -0.384325 0.831434 0.174598303985959 -0.207904663993744 -0.293815112569468
-0.005569 -0.508971 0.894761 -0.0234467019240279 -0.297136288320575 -0.297035318439406
-0.47439 -0.50957 0.136519 -0.121460170747271 -0.176328512446626 -0.238095311754574
-0.726197 -0.073428 0.136518 -0.162016179026511 -0.0302549791725743 -0.219140004934503
-0.638746 0.422534 0.136519 -0.1663874148163 0.117559433018478 -0.235611858871324
-0.252955 0.74625 0.136519 -0.094605872672455 0.22054417586116 -0.251252065604235
0.256267 0.740054 0.073192 0.0777818397669126 0.210168921164481 -0.248303408994825
0.636448 0.422534 0.136519 0.217675242752405 0.107782444462563 -0.249275897742109
0.723899 -0.073428 0.136518 0.248550356595193 -0.0290032532567289 -0.250991904631143
0.477702 -0.515766 0.073192 0.152026221984945 -0.181442737859265 -0.251314516604677
-0.001149 -0.681816 0.136518 -0.0160035403473028 -0.254763131320932 -0.253687572805521
-0.015674 -0.253986 2.466367 -0.058401466890363 -0.271256904943184 -0.281218170872357
-0.199847 -0.186952 2.466368 -0.108512332480314 -0.175884323984666 -0.262237867951942
-0.292234 -0.023413 2.403041 -0.139396217180837 -0.0282787186139278 -0.231243481513534
-0.263809 0.175798 2.466367 -0.152360596550684 0.115225669927257 -0.257568141786238
-0.11367 0.30178 2.466367 -0.130553215360741 0.213497814737997 -0.274178126627172
0.087932 0.295584 2.403041 0.0703236785481527 0.176126034951216 -0.260606614978338
0.232462 0.175798 2.466367 0.244770836083242 0.0750520713801292 -0.270704790440393
0.266496 -0.017217 2.466367 0.272247996471508 0.00779592983518213 -0.278529036054088
0.174109 -0.193148 2.403041 0.138429416871603 -0.161155031604497 -0.271498456210425
-0.010725 -0.451635 1.692862 -0.029470160461222 -0.275486992492422 -0.29057461268302
-0.324917 -0.337279 1.692862 -0.125344109435181 -0.189662275524016 -0.273401678047898
-0.486486 -0.053915 1.629535 -0.166221676213735 -0.0319483859502915 -0.249849938904806
-0.434034 0.281558 1.692862 -0.173765739031761 0.126190950848315 -0.269966802104912
-0.177903 0.496478 1.692862 -0.106092638911315 0.231359578039081 -0.286038083653698
0.162062 0.490282 1.629536 0.081601820770667 0.213873948851478 -0.279593265741079
0.412585 0.281558 1.692862 0.235322314325213 0.106754304262614 -0.284066778765131
0.470645 -0.047718 1.692862 0.270839194142134 -0.020173717569479 -0.28784379010086
0.309076 -0.343475 1.629535 0.157294803012272 -0.186546120211067 -0.285763937384566
-0.005286 -0.671042 0.842699 -0.0211263079927941 -0.296281443327319 -0.297262303187036
-0.463775 -0.504165 0.842699 -0.145224202080748 -0.207580502191891 -0.283979047463956
-0.702124 -0.087815 0.779372 -0.198598980551516 -0.0369733760721746 -0.266912412227287
-0.623007 0.398883 0.842699 -0.200529098225662 0.138952865966257 -0.282272417686045
-0.249243 0.712509 0.842699 -0.110700654200254 0.258984415087391 -0.295436496897407
0.244281 0.706312 0.779373 0.0920531169255552 0.246110212408887 -0.291538526426408
0.612436 0.398883 0.842699 0.254999409248995 0.125752670314514 -0.293205367468127
0.697161 -0.081619 0.842699 0.291077557617859 -0.0314038906304096 -0.294830051656163
0.458813 -0.510362 0.779373 0.175656068440659 -0.209153343103686 -0.294138538229653
-0.000399 -0.831178 0.078844 -0.0163241589701235 -0.267929991784537 -0.287280005070247
-0.564756 -0.625769 0.078845 -0.129154717472833 -0.185503046940625 -0.270322330653297
-0.859436 -0.11185 0.015518 -0.173080443455693 -0.0325019928139161 -0.249720218916175
-0.760756 0.485799 0.078844 -0.176309677139946 0.122985485690305 -0.267013553702615
-0.300687 0.871843 0.078845 -0.0977323950555972 0.231993460524316 -0.283703302524641
0.305499 0.865646 0.015518 0.08259495464677 0.222100997521453 -0.280762518269546
0.759959 0.485799 0.078845 0.22815034999928 0.114419000305033 -0.282004053757113
0.864248 -0.105654 0.078844 0.261471861683412 -0.03099159021397 -0.284145023907435
0.569569 -0.631965 0.015518 0.160291378952541 -0.19129688933375 -0.284790929622062
-0.669916 -0.752068 -0.51294 -0.140906953672017 -0.194953049069303 -0.253048495738126
-1.022565 -0.137744 -0.576267 -0.194890081550482 -0.0357530501070904 -0.240667115343149
-0.903752 0.574081 -0.51294 -0.19348499494698 0.130353706337295 -0.253001397517386
-0.35487 1.034648 -0.51294 -0.100302052731182 0.246633698913755 -0.264006063025134
0.367254 1.028452 -0.576267 0.0882039602758858 0.238685822889294 -0.261497218912994
0.910528 0.574081 -0.51294 0.238001536415385 0.123879403591458 -0.261378252510071
1.034949 -0.131548 -0.512941 0.271335067775892 -0.0356843467971086 -0.261636570672563
0.682301 -0.758265 -0.576267 0.168508887627544 -0.200975738395567 -0.261436678347576
0.003388 -0.997131 -0.512941 -0.012878037065093 -0.276765751247071 -0.263405603721242
-0.747414 -0.845319 -1.054853 -0.0333234324401601 -0.06239680971606 -0.101003251059372
-1.143143 -0.156378 -1.118179 -0.137192978178884 -0.0194257091790506 -0.18793275916596
-1.009368 0.6403 -1.054853 -0.128963569399404 0.0823960261635142 -0.199017040819165
-0.394483 1.15625 -1.054853 -0.0198948702835293 0.0745256599491765 -0.106206881489201
0.413802 1.150053 -1.118179 0.0202023076216874 0.0704305164482543 -0.106116979188761
1.023078 0.640299 -1.054853 0.17045563600485 0.0805523346159418 -0.208166317529709
1.162461 -0.150182 -1.054853 0.287290177458366 -0.0396815862623558 -0.26208940725161
0.766733 -0.851516 -1.118179 0.131064040973139 -0.135688107950849 -0.209164691135653
0.006855 -1.119851 -1.054853 -0.0145714095848522 -0.0888278031753306 -0.11359927455817
0.018886 -0.373037 -1.895607 0 -0.617016576372989 -0.218063569902874
0.018886 -0.373037 -0.720161 0 -0.617412314411418 0.22046441547365
-0.231064 -0.282063 -1.895607 -0.396627869110574 -0.472670057980604 -0.218066837410182
-0.231064 -0.282063 -0.720161 -0.396872239440404 -0.47297474746883 0.220464880224217
-0.36406 -0.051708 -1.895607 -0.607652460918187 -0.107162778952309 -0.218069406163146
-0.36406 -0.051708 -0.720161 -0.608036331648034 -0.107235315674031 0.220466063946969
-0.317871 0.210242 -1.895607 -0.534363024076667 0.308501471926015 -0.218067118476488
-0.317871 0.210242 -0.720161 -0.534698638387027 0.308698715648044 0.220466999621236
-0.11411 0.381218 -1.895607 -0.211035415207973 0.579815216582234 -0.218063862378333
-0.11411 0.381218 -0.720161 -0.211165638292512 0.58018730096668 0.220468912325913
0.151881 0.381218 -1.895607 0.211035415207973 0.579815216582234 -0.218063862378333
0.151881 0.381218 -0.720161 0.211165638292512 0.58018730096668 0.220468912325913
0.355642 0.210242 -1.895607 0.534363024076667 0.308501471926015 -0.218067118476488
0.355642 0.210242 -0.720161 0.534698638387027 0.308698715648044 0.220466999621236
0.401831 -0.051708 -1.895607 0.607652460918187 -0.107162778952309 -0.218069406163146
0.401831 -0.051708 -0.720161 0.608036331648034 -0.107235315674031 0.220466063946969
0.268836 -0.282063 -1.895607 0.396627869110574 -0.472670057980604 -0.218066837410182
0.268836 -0.282063 -0.720161 0.396872239440404 -0.47297474746883 0.220464880224217
0.018886 -0.264436 -1.31439 0 -0.925821668088305 0.00180063417808157
-0.161257 -0.19887 -1.31439 -0.595125081413233 -0.709233604087076 0.00179853211052636
-0.257109 -0.03285 -1.31439 -0.911766594424665 -0.160798570969755 0.00179749333786703
-0.22382 0.155942 -1.31439 -0.80179624684777 0.462900140680544 0.00179991085856072
-0.076966 0.279167 -1.31439 -0.316650790125364 0.870001888161685 0.00180378746068449
0.114738 0.279166 -1.31439 0.316650790125364 0.870001888161685 0.00180378746068449
0.261591 0.155942 -1.31439 0.801796246847771 0.462900140680544 0.00179991085856072
0.29488 -0.03285 -1.31439 0.911766594424665 -0.160798570969755 0.00179749333786703
0.199028 -0.19887 -1.31439 0.595125081413233 -0.709233604087076 0.00179853211052636
4 63 1 3 64
4 64 3 5 65
4 65 5 7 66
4 66 7 9 67
4 67 9 11 68
4 68 11 13 69
4 69 13 15 70
9 3 1 17 15 13 11 9 7 5
4 71 17 1 63
4 70 15 17 71
9 0 2 4 6 8 10 12 14 16
4 114 25 26 115
4 115 26 18 116
4 113 24 25 114
4 112 23 24 113
4 111 22 23 112
4 110 21 22 111
4 109 20 21 110
4 108 19 20 109
4 116 18 19 108
4 79 34 35 80
4 80 35 27 72
4 78 33 34 79
4 77 32 33 78
4 76 31 32 77
4 75 30 31 76
4 74 29 30 75
4 73 28 29 74
4 72 27 28 73
4 81 44 36 82
4 82 36 37 83
4 83 37 38 84
4 84 38 39 85
4 85 39 40 86
4 86 40 41 87
4 87 41 42 88
4 89 43 44 81
4 88 42 43 89
4 97 51 52 98
4 98 52 53 90
4 96 50 51 97
4 95 49 50 96
4 94 48 49 95
4 93 47 48 94
4 92 46 47 93
4 91 45 46 92
4 90 53 45 91
4 107 62 54 99
4 99 54 55 100
4 100 55 56 101
4 101 56 57 102
4 102 57 58 103
4 103 58 59 104
4 104 59 60 105
4 106 61 62 107
4 105 60 61 106
4 34 70 71 35
4 35 71 63 27
4 33 69 70 34
4 32 68 69 33
4 31 67 68 32
4 30 66 67 31
4 29 65 66 30
4 28 64 65 29
4 27 63 64 28
4 44 72 73 36
4 36 73 74 37
4 37 74 75 38
4 38 75 76 39
4 39 76 77 40
4 40 77 78 41
4 41 78 79 42
4 43 80 72 44
4 42 79 80 43
4 51 88 89 52
4 52 89 81 53
4 50 87 88 51
4 49 86 87 50
4 48 85 86 49
4 47 84 85 48
4 46 83 84 47
4 45 82 83 46
4 53 81 82 45
4 62 90 91 54
4 54 91 92 55
4 55 92 93 56
4 56 93 94 57
4 57 94 95 58
4 58 95 96 59
4 59 96 97 60
4 61 98 90 62
4 60 97 98 61
4 25 105 106 26
4 26 106 107 18
4 24 104 105 25
4 23 103 104 24
4 22 102 103 23
4 21 101 102 22
4 20 100 101 21
4 19 99 100 20
4 18 107 99 19
4 0 116 108 2
4 2 108 109 4
4 4 109 110 6
4 6 110 111 8
4 8 111 112 10
4 10 112 113 12
4 12 113 114 14
4 16 115 116 0
4 14 114 115 16
4 135 118 120 136
4 136 120 122 137
4 137 122 124 138
4 138 124 126 139
4 139 126 128 140
4 140 128 130 141
4 141 130 132 142
9 120 118 134 132 130 128 126 124 122
4 143 134 118 135
4 142 132 134 143
9 117 119 121 123 125 127 129 131 133
4 131 142 143 133
4 133 143 135 117
4 129 141 142 131
4 127 140 141 129
4 125 139 140 127
4 123 138 139 125
4 121 137 138 123
4 119 136 137 121
4 117 135 136 119
